<?xml version="1.0" encoding="UTF-8" standalone="no"?><!DOCTYPE svg PUBLIC "-//W3C//DTD SVG 1.1//EN" "http://www.w3.org/Graphics/SVG/1.1/DTD/svg11.dtd"><!-- Generated by graphviz version 2.40.1 (20161225.0304)
 --><!-- Title: mygraph Pages: 1 --><svg xmlns="http://www.w3.org/2000/svg" xmlns:xlink="http://www.w3.org/1999/xlink" width="2014pt" height="526pt" viewBox="0.00 0.00 2014.08 526.40">
<g id="graph0" class="graph" transform="scale(1 1) rotate(0) translate(4 522.4)">
<title>mygraph</title>
<polygon fill="#ffffff" stroke="transparent" points="-4,4 -4,-522.4 2010.0843,-522.4 2010.0843,4 -4,4"/>
<!-- //:ProjectRunner_deploy.jar.unstripped\n//:ProjectRunner_deploy.jar -->
<g id="node1" class="node">
<title>//:ProjectRunner_deploy.jar.unstripped\n//:ProjectRunner_deploy.jar</title>
<polygon fill="none" stroke="#000000" points="243.1998,-518.2019 9.1804,-518.2019 9.1804,-476.9981 243.1998,-476.9981 243.1998,-518.2019"/>
<text text-anchor="middle" x="126.1901" y="-501.8" font-family="Times,serif" font-size="14.00" fill="#000000">//:ProjectRunner_deploy.jar.unstripped</text>
<text text-anchor="middle" x="126.1901" y="-485" font-family="Times,serif" font-size="14.00" fill="#000000">//:ProjectRunner_deploy.jar</text>
</g>
<!-- //:ProjectRunner_deployjars_internal_rule -->
<g id="node2" class="node">
<title>//:ProjectRunner_deployjars_internal_rule</title>
<polygon fill="none" stroke="#000000" points="252.5706,-429.6 -.1904,-429.6 -.1904,-393.6 252.5706,-393.6 252.5706,-429.6"/>
<text text-anchor="middle" x="126.1901" y="-407.4" font-family="Times,serif" font-size="14.00" fill="#000000">//:ProjectRunner_deployjars_internal_rule</text>
</g>
<!-- //:ProjectRunner_deploy.jar.unstripped\n//:ProjectRunner_deploy.jar&#45;&gt;//:ProjectRunner_deployjars_internal_rule -->
<g id="edge1" class="edge">
<title>//:ProjectRunner_deploy.jar.unstripped\n//:ProjectRunner_deploy.jar-&gt;//:ProjectRunner_deployjars_internal_rule</title>
<path fill="none" stroke="#000000" d="M126.1901,-476.7818C126.1901,-465.6318 126.1901,-451.7417 126.1901,-439.6521"/>
<polygon fill="#000000" stroke="#000000" points="129.6902,-439.6055 126.1901,-429.6055 122.6902,-439.6055 129.6902,-439.6055"/>
</g>
<!-- //:ProjectRunner -->
<g id="node4" class="node">
<title>//:ProjectRunner</title>
<polygon fill="none" stroke="#000000" points="413.2283,-343.6 305.1519,-343.6 305.1519,-307.6 413.2283,-307.6 413.2283,-343.6"/>
<text text-anchor="middle" x="359.1901" y="-321.4" font-family="Times,serif" font-size="14.00" fill="#000000">//:ProjectRunner</text>
</g>
<!-- //:ProjectRunner_deployjars_internal_rule&#45;&gt;//:ProjectRunner -->
<g id="edge17" class="edge">
<title>//:ProjectRunner_deployjars_internal_rule-&gt;//:ProjectRunner</title>
<path fill="none" stroke="#000000" d="M175.0345,-393.5716C211.694,-380.0406 262.0312,-361.4612 300.8142,-347.1465"/>
<polygon fill="#000000" stroke="#000000" points="302.2405,-350.3509 310.41,-343.6047 299.8166,-343.7839 302.2405,-350.3509"/>
</g>
<!-- //:ProjectRunner_deploy&#45;src.jar\n//:ProjectRunner&#45;src.jar\n//:ProjectRunner.jar -->
<g id="node3" class="node">
<title>//:ProjectRunner_deploy-src.jar\n//:ProjectRunner-src.jar\n//:ProjectRunner.jar</title>
<polygon fill="none" stroke="#000000" points="463.5787,-441.0014 270.8015,-441.0014 270.8015,-382.1986 463.5787,-382.1986 463.5787,-441.0014"/>
<text text-anchor="middle" x="367.1901" y="-424.2" font-family="Times,serif" font-size="14.00" fill="#000000">//:ProjectRunner_deploy-src.jar</text>
<text text-anchor="middle" x="367.1901" y="-407.4" font-family="Times,serif" font-size="14.00" fill="#000000">//:ProjectRunner-src.jar</text>
<text text-anchor="middle" x="367.1901" y="-390.6" font-family="Times,serif" font-size="14.00" fill="#000000">//:ProjectRunner.jar</text>
</g>
<!-- //:ProjectRunner_deploy&#45;src.jar\n//:ProjectRunner&#45;src.jar\n//:ProjectRunner.jar&#45;&gt;//:ProjectRunner -->
<g id="edge2" class="edge">
<title>//:ProjectRunner_deploy-src.jar\n//:ProjectRunner-src.jar\n//:ProjectRunner.jar-&gt;//:ProjectRunner</title>
<path fill="none" stroke="#000000" d="M364.437,-382.0037C363.5858,-372.8541 362.651,-362.8049 361.8092,-353.7555"/>
<polygon fill="#000000" stroke="#000000" points="365.2856,-353.3382 360.8743,-343.7054 358.3157,-353.9866 365.2856,-353.3382"/>
</g>
<!-- @bazel_tools//tools/jdk:launcher_flag_alias -->
<g id="node11" class="node">
<title>@bazel_tools//tools/jdk:launcher_flag_alias</title>
<polygon fill="none" stroke="#000000" points="755.6375,-266 492.7427,-266 492.7427,-230 755.6375,-230 755.6375,-266"/>
<text text-anchor="middle" x="624.1901" y="-243.8" font-family="Times,serif" font-size="14.00" fill="#000000">@bazel_tools//tools/jdk:launcher_flag_alias</text>
</g>
<!-- //:ProjectRunner&#45;&gt;@bazel_tools//tools/jdk:launcher_flag_alias -->
<g id="edge19" class="edge">
<title>//:ProjectRunner-&gt;@bazel_tools//tools/jdk:launcher_flag_alias</title>
<path fill="none" stroke="#000000" d="M413.4563,-309.7092C453.7186,-297.9192 508.996,-281.7323 552.8349,-268.8949"/>
<polygon fill="#000000" stroke="#000000" points="553.9605,-272.2124 562.5739,-266.0431 551.9932,-265.4945 553.9605,-272.2124"/>
</g>
<!-- //:src/main/java/com/greeting/ProjectRunner.java\n//:src/main/java/com/greeting/Greeting.java -->
<g id="node20" class="node">
<title>//:src/main/java/com/greeting/ProjectRunner.java\n//:src/main/java/com/greeting/Greeting.java</title>
<polygon fill="none" stroke="#000000" points="474.612,-268.6019 181.7682,-268.6019 181.7682,-227.3981 474.612,-227.3981 474.612,-268.6019"/>
<text text-anchor="middle" x="328.1901" y="-252.2" font-family="Times,serif" font-size="14.00" fill="#000000">//:src/main/java/com/greeting/ProjectRunner.java</text>
<text text-anchor="middle" x="328.1901" y="-235.4" font-family="Times,serif" font-size="14.00" fill="#000000">//:src/main/java/com/greeting/Greeting.java</text>
</g>
<!-- //:ProjectRunner&#45;&gt;//:src/main/java/com/greeting/ProjectRunner.java\n//:src/main/java/com/greeting/Greeting.java -->
<g id="edge18" class="edge">
<title>//:ProjectRunner-&gt;//:src/main/java/com/greeting/ProjectRunner.java\n//:src/main/java/com/greeting/Greeting.java</title>
<path fill="none" stroke="#000000" d="M351.8435,-307.2099C348.379,-298.5374 344.1547,-287.9631 340.2398,-278.1632"/>
<polygon fill="#000000" stroke="#000000" points="343.4277,-276.7085 336.4676,-268.7205 336.9272,-279.3054 343.4277,-276.7085"/>
</g>
<!-- //:salutations_deploy.jar\n//:salutations_deploy.jar.unstripped -->
<g id="node5" class="node">
<title>//:salutations_deploy.jar\n//:salutations_deploy.jar.unstripped</title>
<polygon fill="none" stroke="#000000" points="766.7152,-518.2019 553.665,-518.2019 553.665,-476.9981 766.7152,-476.9981 766.7152,-518.2019"/>
<text text-anchor="middle" x="660.1901" y="-501.8" font-family="Times,serif" font-size="14.00" fill="#000000">//:salutations_deploy.jar</text>
<text text-anchor="middle" x="660.1901" y="-485" font-family="Times,serif" font-size="14.00" fill="#000000">//:salutations_deploy.jar.unstripped</text>
</g>
<!-- //:salutations_deployjars_internal_rule -->
<g id="node6" class="node">
<title>//:salutations_deployjars_internal_rule</title>
<polygon fill="none" stroke="#000000" points="776.086,-429.6 544.2942,-429.6 544.2942,-393.6 776.086,-393.6 776.086,-429.6"/>
<text text-anchor="middle" x="660.1901" y="-407.4" font-family="Times,serif" font-size="14.00" fill="#000000">//:salutations_deployjars_internal_rule</text>
</g>
<!-- //:salutations_deploy.jar\n//:salutations_deploy.jar.unstripped&#45;&gt;//:salutations_deployjars_internal_rule -->
<g id="edge3" class="edge">
<title>//:salutations_deploy.jar\n//:salutations_deploy.jar.unstripped-&gt;//:salutations_deployjars_internal_rule</title>
<path fill="none" stroke="#000000" d="M660.1901,-476.7818C660.1901,-465.6318 660.1901,-451.7417 660.1901,-439.6521"/>
<polygon fill="#000000" stroke="#000000" points="663.6902,-439.6055 660.1901,-429.6055 656.6902,-439.6055 663.6902,-439.6055"/>
</g>
<!-- //:salutations -->
<g id="node9" class="node">
<title>//:salutations</title>
<polygon fill="none" stroke="#000000" points="711.7438,-343.6 624.6364,-343.6 624.6364,-307.6 711.7438,-307.6 711.7438,-343.6"/>
<text text-anchor="middle" x="668.1901" y="-321.4" font-family="Times,serif" font-size="14.00" fill="#000000">//:salutations</text>
</g>
<!-- //:salutations_deployjars_internal_rule&#45;&gt;//:salutations -->
<g id="edge5" class="edge">
<title>//:salutations_deployjars_internal_rule-&gt;//:salutations</title>
<path fill="none" stroke="#000000" d="M661.8867,-393.3616C662.9473,-381.9597 664.3358,-367.0342 665.5395,-354.094"/>
<polygon fill="#000000" stroke="#000000" points="669.0546,-354.0933 666.496,-343.8121 662.0847,-353.4449 669.0546,-354.0933"/>
</g>
<!-- //:libtextio.jar\n//:libtextio&#45;src.jar -->
<g id="node7" class="node">
<title>//:libtextio.jar\n//:libtextio-src.jar</title>
<polygon fill="none" stroke="#000000" points="859.7765,-346.2019 746.6037,-346.2019 746.6037,-304.9981 859.7765,-304.9981 859.7765,-346.2019"/>
<text text-anchor="middle" x="803.1901" y="-329.8" font-family="Times,serif" font-size="14.00" fill="#000000">//:libtextio.jar</text>
<text text-anchor="middle" x="803.1901" y="-313" font-family="Times,serif" font-size="14.00" fill="#000000">//:libtextio-src.jar</text>
</g>
<!-- //:textio -->
<g id="node8" class="node">
<title>//:textio</title>
<polygon fill="none" stroke="#000000" points="832.7499,-266 773.6303,-266 773.6303,-230 832.7499,-230 832.7499,-266"/>
<text text-anchor="middle" x="803.1901" y="-243.8" font-family="Times,serif" font-size="14.00" fill="#000000">//:textio</text>
</g>
<!-- //:libtextio.jar\n//:libtextio&#45;src.jar&#45;&gt;//:textio -->
<g id="edge4" class="edge">
<title>//:libtextio.jar\n//:libtextio-src.jar-&gt;//:textio</title>
<path fill="none" stroke="#000000" d="M803.1901,-304.8046C803.1901,-296.0628 803.1901,-285.7542 803.1901,-276.3349"/>
<polygon fill="#000000" stroke="#000000" points="806.6902,-276.209 803.1901,-266.2091 799.6902,-276.2091 806.6902,-276.209"/>
</g>
<!-- //:src/main/java/com/dependency/Salutations.java -->
<g id="node12" class="node">
<title>//:src/main/java/com/dependency/Salutations.java</title>
<polygon fill="none" stroke="#000000" points="822.4526,-191.2 527.9276,-191.2 527.9276,-155.2 822.4526,-155.2 822.4526,-191.2"/>
<text text-anchor="middle" x="675.1901" y="-169" font-family="Times,serif" font-size="14.00" fill="#000000">//:src/main/java/com/dependency/Salutations.java</text>
</g>
<!-- //:textio&#45;&gt;//:src/main/java/com/dependency/Salutations.java -->
<g id="edge9" class="edge">
<title>//:textio-&gt;//:src/main/java/com/dependency/Salutations.java</title>
<path fill="none" stroke="#000000" d="M773.5026,-230.6514C756.0336,-220.4429 733.7223,-207.4047 714.7713,-196.3303"/>
<polygon fill="#000000" stroke="#000000" points="716.4527,-193.2591 706.0529,-191.2355 712.9209,-199.3028 716.4527,-193.2591"/>
</g>
<!-- @maven//:org_beryx_text_io -->
<g id="node13" class="node">
<title>@maven//:org_beryx_text_io</title>
<polygon fill="none" stroke="#000000" points="1021.9968,-191.2 840.3834,-191.2 840.3834,-155.2 1021.9968,-155.2 1021.9968,-191.2"/>
<text text-anchor="middle" x="931.1901" y="-169" font-family="Times,serif" font-size="14.00" fill="#000000">@maven//:org_beryx_text_io</text>
</g>
<!-- //:textio&#45;&gt;@maven//:org_beryx_text_io -->
<g id="edge10" class="edge">
<title>//:textio-&gt;@maven//:org_beryx_text_io</title>
<path fill="none" stroke="#000000" d="M832.8776,-230.6514C850.3466,-220.4429 872.6579,-207.4047 891.6089,-196.3303"/>
<polygon fill="#000000" stroke="#000000" points="893.4593,-199.3028 900.3273,-191.2355 889.9275,-193.2591 893.4593,-199.3028"/>
</g>
<!-- //:salutations&#45;&gt;//:textio -->
<g id="edge7" class="edge">
<title>//:salutations-&gt;//:textio</title>
<path fill="none" stroke="#000000" d="M699.8416,-307.4062C719.2574,-296.2458 744.2478,-281.8809 764.7907,-270.0726"/>
<polygon fill="#000000" stroke="#000000" points="766.6604,-273.0349 773.586,-265.0169 763.1719,-266.966 766.6604,-273.0349"/>
</g>
<!-- //:salutations&#45;&gt;@bazel_tools//tools/jdk:launcher_flag_alias -->
<g id="edge8" class="edge">
<title>//:salutations-&gt;@bazel_tools//tools/jdk:launcher_flag_alias</title>
<path fill="none" stroke="#000000" d="M657.7627,-307.2099C652.3379,-297.6424 645.6006,-285.7603 639.5883,-275.1569"/>
<polygon fill="#000000" stroke="#000000" points="642.5197,-273.2307 634.5426,-266.2581 636.4304,-276.6834 642.5197,-273.2307"/>
</g>
<!-- //:salutations_deploy&#45;src.jar\n//:salutations&#45;src.jar\n//:salutations.jar -->
<g id="node10" class="node">
<title>//:salutations_deploy-src.jar\n//:salutations-src.jar\n//:salutations.jar</title>
<polygon fill="none" stroke="#000000" points="966.0941,-441.0014 794.2861,-441.0014 794.2861,-382.1986 966.0941,-382.1986 966.0941,-441.0014"/>
<text text-anchor="middle" x="880.1901" y="-424.2" font-family="Times,serif" font-size="14.00" fill="#000000">//:salutations_deploy-src.jar</text>
<text text-anchor="middle" x="880.1901" y="-407.4" font-family="Times,serif" font-size="14.00" fill="#000000">//:salutations-src.jar</text>
<text text-anchor="middle" x="880.1901" y="-390.6" font-family="Times,serif" font-size="14.00" fill="#000000">//:salutations.jar</text>
</g>
<!-- //:salutations_deploy&#45;src.jar\n//:salutations&#45;src.jar\n//:salutations.jar&#45;&gt;//:salutations -->
<g id="edge6" class="edge">
<title>//:salutations_deploy-src.jar\n//:salutations-src.jar\n//:salutations.jar-&gt;//:salutations</title>
<path fill="none" stroke="#000000" d="M808.1208,-382.3643C779.6831,-370.8283 747.6032,-357.8148 721.3401,-347.1608"/>
<polygon fill="#000000" stroke="#000000" points="722.5272,-343.8654 711.9449,-343.3496 719.8958,-350.352 722.5272,-343.8654"/>
</g>
<!-- @maven//:v1/https/repo1.maven.org/maven2/org/beryx/text&#45;io/3.4.1/text&#45;io&#45;3.4.1.jar\n@maven//:v1/https/repo1.maven.org/maven2/org/beryx/text&#45;io/3.4.1/text&#45;io&#45;3.4.1&#45;sources.jar -->
<g id="node14" class="node">
<title>@maven//:v1/https/repo1.maven.org/maven2/org/beryx/text-io/3.4.1/text-io-3.4.1.jar\n@maven//:v1/https/repo1.maven.org/maven2/org/beryx/text-io/3.4.1/text-io-3.4.1-sources.jar</title>
<polygon fill="none" stroke="#000000" points="741.2962,-119.0019 203.084,-119.0019 203.084,-77.7981 741.2962,-77.7981 741.2962,-119.0019"/>
<text text-anchor="middle" x="472.1901" y="-102.6" font-family="Times,serif" font-size="14.00" fill="#000000">@maven//:v1/https/repo1.maven.org/maven2/org/beryx/text-io/3.4.1/text-io-3.4.1.jar</text>
<text text-anchor="middle" x="472.1901" y="-85.8" font-family="Times,serif" font-size="14.00" fill="#000000">@maven//:v1/https/repo1.maven.org/maven2/org/beryx/text-io/3.4.1/text-io-3.4.1-sources.jar</text>
</g>
<!-- @maven//:org_beryx_text_io&#45;&gt;@maven//:v1/https/repo1.maven.org/maven2/org/beryx/text&#45;io/3.4.1/text&#45;io&#45;3.4.1.jar\n@maven//:v1/https/repo1.maven.org/maven2/org/beryx/text&#45;io/3.4.1/text&#45;io&#45;3.4.1&#45;sources.jar -->
<g id="edge11" class="edge">
<title>@maven//:org_beryx_text_io-&gt;@maven//:v1/https/repo1.maven.org/maven2/org/beryx/text-io/3.4.1/text-io-3.4.1.jar\n@maven//:v1/https/repo1.maven.org/maven2/org/beryx/text-io/3.4.1/text-io-3.4.1-sources.jar</title>
<path fill="none" stroke="#000000" d="M840.4538,-156.781C837.3289,-156.2431 834.2339,-155.7147 831.1901,-155.2 760.7653,-143.2919 682.4346,-130.8101 616.9566,-120.5897"/>
<polygon fill="#000000" stroke="#000000" points="617.3969,-117.1162 606.9771,-119.034 616.3186,-124.0327 617.3969,-117.1162"/>
</g>
<!-- @maven//:jline_jline -->
<g id="node15" class="node">
<title>@maven//:jline_jline</title>
<polygon fill="none" stroke="#000000" points="894.3475,-116.4 760.0327,-116.4 760.0327,-80.4 894.3475,-80.4 894.3475,-116.4"/>
<text text-anchor="middle" x="827.1901" y="-94.2" font-family="Times,serif" font-size="14.00" fill="#000000">@maven//:jline_jline</text>
</g>
<!-- @maven//:org_beryx_text_io&#45;&gt;@maven//:jline_jline -->
<g id="edge12" class="edge">
<title>@maven//:org_beryx_text_io-&gt;@maven//:jline_jline</title>
<path fill="none" stroke="#000000" d="M906.0146,-155.093C892.4464,-145.3343 875.5228,-133.1624 860.8388,-122.6012"/>
<polygon fill="#000000" stroke="#000000" points="862.6562,-119.5971 852.4942,-116.5995 858.5689,-125.2799 862.6562,-119.5971"/>
</g>
<!-- @maven//:org_beryx_awt_color_factory -->
<g id="node16" class="node">
<title>@maven//:org_beryx_awt_color_factory</title>
<polygon fill="none" stroke="#000000" points="1157.7287,-116.4 912.6515,-116.4 912.6515,-80.4 1157.7287,-80.4 1157.7287,-116.4"/>
<text text-anchor="middle" x="1035.1901" y="-94.2" font-family="Times,serif" font-size="14.00" fill="#000000">@maven//:org_beryx_awt_color_factory</text>
</g>
<!-- @maven//:org_beryx_text_io&#45;&gt;@maven//:org_beryx_awt_color_factory -->
<g id="edge13" class="edge">
<title>@maven//:org_beryx_text_io-&gt;@maven//:org_beryx_awt_color_factory</title>
<path fill="none" stroke="#000000" d="M956.3656,-155.093C969.9338,-145.3343 986.8574,-133.1624 1001.5414,-122.6012"/>
<polygon fill="#000000" stroke="#000000" points="1003.8113,-125.2799 1009.886,-116.5995 999.724,-119.5971 1003.8113,-125.2799"/>
</g>
<!-- @maven//:org_slf4j_slf4j_api -->
<g id="node17" class="node">
<title>@maven//:org_slf4j_slf4j_api</title>
<polygon fill="none" stroke="#000000" points="1573.6134,-116.4 1388.7668,-116.4 1388.7668,-80.4 1573.6134,-80.4 1573.6134,-116.4"/>
<text text-anchor="middle" x="1481.1901" y="-94.2" font-family="Times,serif" font-size="14.00" fill="#000000">@maven//:org_slf4j_slf4j_api</text>
</g>
<!-- @maven//:org_beryx_text_io&#45;&gt;@maven//:org_slf4j_slf4j_api -->
<g id="edge14" class="edge">
<title>@maven//:org_beryx_text_io-&gt;@maven//:org_slf4j_slf4j_api</title>
<path fill="none" stroke="#000000" d="M1022.0114,-160.8483C1120.1906,-147.4959 1276.3343,-126.2604 1378.8026,-112.3247"/>
<polygon fill="#000000" stroke="#000000" points="1379.4193,-115.7731 1388.8564,-110.9574 1378.4759,-108.837 1379.4193,-115.7731"/>
</g>
<!-- @maven//:v1/https/repo1.maven.org/maven2/jline/jline/2.14.6/jline&#45;2.14.6.jar\n@maven//:v1/https/repo1.maven.org/maven2/jline/jline/2.14.6/jline&#45;2.14.6&#45;sources.jar -->
<g id="node19" class="node">
<title>@maven//:v1/https/repo1.maven.org/maven2/jline/jline/2.14.6/jline-2.14.6.jar\n@maven//:v1/https/repo1.maven.org/maven2/jline/jline/2.14.6/jline-2.14.6-sources.jar</title>
<polygon fill="none" stroke="#000000" points="685.935,-41.4019 186.4452,-41.4019 186.4452,-.1981 685.935,-.1981 685.935,-41.4019"/>
<text text-anchor="middle" x="436.1901" y="-25" font-family="Times,serif" font-size="14.00" fill="#000000">@maven//:v1/https/repo1.maven.org/maven2/jline/jline/2.14.6/jline-2.14.6.jar</text>
<text text-anchor="middle" x="436.1901" y="-8.2" font-family="Times,serif" font-size="14.00" fill="#000000">@maven//:v1/https/repo1.maven.org/maven2/jline/jline/2.14.6/jline-2.14.6-sources.jar</text>
</g>
<!-- @maven//:jline_jline&#45;&gt;@maven//:v1/https/repo1.maven.org/maven2/jline/jline/2.14.6/jline&#45;2.14.6.jar\n@maven//:v1/https/repo1.maven.org/maven2/jline/jline/2.14.6/jline&#45;2.14.6&#45;sources.jar -->
<g id="edge16" class="edge">
<title>@maven//:jline_jline-&gt;@maven//:v1/https/repo1.maven.org/maven2/jline/jline/2.14.6/jline-2.14.6.jar\n@maven//:v1/https/repo1.maven.org/maven2/jline/jline/2.14.6/jline-2.14.6-sources.jar</title>
<path fill="none" stroke="#000000" d="M761.7532,-80.3181C757.849,-79.3654 753.9727,-78.4514 750.1901,-77.6 692.9505,-64.7163 629.33,-52.7713 574.4048,-43.1933"/>
<polygon fill="#000000" stroke="#000000" points="574.7048,-39.6932 564.2538,-41.4328 573.5085,-46.5902 574.7048,-39.6932"/>
</g>
<!-- @maven//:v1/https/repo1.maven.org/maven2/org/beryx/awt&#45;color&#45;factory/1.0.1/awt&#45;color&#45;factory&#45;1.0.1.jar\n@maven//:v1/https/repo1.maven.org/maven2/org/beryx/awt&#45;color&#45;factory/1.0.1/awt&#45;color&#45;factory&#45;1.0.1&#45;sources.jar -->
<g id="node22" class="node">
<title>@maven//:v1/https/repo1.maven.org/maven2/org/beryx/awt-color-factory/1.0.1/awt-color-factory-1.0.1.jar\n@maven//:v1/https/repo1.maven.org/maven2/org/beryx/awt-color-factory/1.0.1/awt-color-factory-1.0.1-sources.jar</title>
<polygon fill="none" stroke="#000000" points="1366.0818,-41.4019 704.2984,-41.4019 704.2984,-.1981 1366.0818,-.1981 1366.0818,-41.4019"/>
<text text-anchor="middle" x="1035.1901" y="-25" font-family="Times,serif" font-size="14.00" fill="#000000">@maven//:v1/https/repo1.maven.org/maven2/org/beryx/awt-color-factory/1.0.1/awt-color-factory-1.0.1.jar</text>
<text text-anchor="middle" x="1035.1901" y="-8.2" font-family="Times,serif" font-size="14.00" fill="#000000">@maven//:v1/https/repo1.maven.org/maven2/org/beryx/awt-color-factory/1.0.1/awt-color-factory-1.0.1-sources.jar</text>
</g>
<!-- @maven//:org_beryx_awt_color_factory&#45;&gt;@maven//:v1/https/repo1.maven.org/maven2/org/beryx/awt&#45;color&#45;factory/1.0.1/awt&#45;color&#45;factory&#45;1.0.1.jar\n@maven//:v1/https/repo1.maven.org/maven2/org/beryx/awt&#45;color&#45;factory/1.0.1/awt&#45;color&#45;factory&#45;1.0.1&#45;sources.jar -->
<g id="edge20" class="edge">
<title>@maven//:org_beryx_awt_color_factory-&gt;@maven//:v1/https/repo1.maven.org/maven2/org/beryx/awt-color-factory/1.0.1/awt-color-factory-1.0.1.jar\n@maven//:v1/https/repo1.maven.org/maven2/org/beryx/awt-color-factory/1.0.1/awt-color-factory-1.0.1-sources.jar</title>
<path fill="none" stroke="#000000" d="M1035.1901,-80.0099C1035.1901,-71.5181 1035.1901,-61.2029 1035.1901,-51.5766"/>
<polygon fill="#000000" stroke="#000000" points="1038.6902,-51.5205 1035.1901,-41.5205 1031.6902,-51.5205 1038.6902,-51.5205"/>
</g>
<!-- @maven//:v1/https/repo1.maven.org/maven2/org/slf4j/slf4j&#45;api/1.8.0&#45;beta4/slf4j&#45;api&#45;1.8.0&#45;beta4&#45;sources.jar\n@maven//:v1/https/repo1.maven.org/maven2/org/slf4j/slf4j&#45;api/1.8.0&#45;beta4/slf4j&#45;api&#45;1.8.0&#45;beta4.jar -->
<g id="node18" class="node">
<title>@maven//:v1/https/repo1.maven.org/maven2/org/slf4j/slf4j-api/1.8.0-beta4/slf4j-api-1.8.0-beta4-sources.jar\n@maven//:v1/https/repo1.maven.org/maven2/org/slf4j/slf4j-api/1.8.0-beta4/slf4j-api-1.8.0-beta4.jar</title>
<polygon fill="none" stroke="#000000" points="2005.9785,-41.4019 1384.4017,-41.4019 1384.4017,-.1981 2005.9785,-.1981 2005.9785,-41.4019"/>
<text text-anchor="middle" x="1695.1901" y="-25" font-family="Times,serif" font-size="14.00" fill="#000000">@maven//:v1/https/repo1.maven.org/maven2/org/slf4j/slf4j-api/1.8.0-beta4/slf4j-api-1.8.0-beta4-sources.jar</text>
<text text-anchor="middle" x="1695.1901" y="-8.2" font-family="Times,serif" font-size="14.00" fill="#000000">@maven//:v1/https/repo1.maven.org/maven2/org/slf4j/slf4j-api/1.8.0-beta4/slf4j-api-1.8.0-beta4.jar</text>
</g>
<!-- @maven//:org_slf4j_slf4j_api&#45;&gt;@maven//:v1/https/repo1.maven.org/maven2/org/slf4j/slf4j&#45;api/1.8.0&#45;beta4/slf4j&#45;api&#45;1.8.0&#45;beta4&#45;sources.jar\n@maven//:v1/https/repo1.maven.org/maven2/org/slf4j/slf4j&#45;api/1.8.0&#45;beta4/slf4j&#45;api&#45;1.8.0&#45;beta4.jar -->
<g id="edge15" class="edge">
<title>@maven//:org_slf4j_slf4j_api-&gt;@maven//:v1/https/repo1.maven.org/maven2/org/slf4j/slf4j-api/1.8.0-beta4/slf4j-api-1.8.0-beta4-sources.jar\n@maven//:v1/https/repo1.maven.org/maven2/org/slf4j/slf4j-api/1.8.0-beta4/slf4j-api-1.8.0-beta4.jar</title>
<path fill="none" stroke="#000000" d="M1531.0935,-80.3042C1560.0828,-69.7922 1596.9796,-56.4128 1628.4414,-45.0042"/>
<polygon fill="#000000" stroke="#000000" points="1629.8083,-48.2316 1638.0161,-41.5322 1627.422,-41.6509 1629.8083,-48.2316"/>
</g>
<!-- //:BUILD.bazel -->
<g id="node21" class="node">
<title>//:BUILD.bazel</title>
<polygon fill="none" stroke="#000000" points="888.1604,-515.6 784.2198,-515.6 784.2198,-479.6 888.1604,-479.6 888.1604,-515.6"/>
<text text-anchor="middle" x="836.1901" y="-493.4" font-family="Times,serif" font-size="14.00" fill="#000000">//:BUILD.bazel</text>
</g>
</g>
</svg>